<?xml version="1.0" encoding="utf-8"?>
<!-- Generator: Adobe Illustrator 21.0.0, SVG Export Plug-In . SVG Version: 6.00 Build 0)  -->
<svg version="1.1" id="Слой_1" xmlns="http://www.w3.org/2000/svg" xmlns:xlink="http://www.w3.org/1999/xlink" x="0px" y="0px"
	 viewBox="0 0 18 24" style="enable-background:new 0 0 18 24;" xml:space="preserve">
<style type="text/css">
	.st0{fill:#FFFFFF;}
</style>
<title>Ресурс 7</title>
<g id="Слой_2">
	<g id="HEADER">
		<g id="Cart">
			<g id="icon-cart">
				<path class="st0" d="M15,3h-1.5c0-1.7-2-3-4.5-3S4.5,1.3,4.5,3H3C1.3,3,0,4.3,0,6v15c0,1.7,1.3,3,3,3h12c1.7,0,3-1.3,3-3V6
					C18,4.3,16.7,3,15,3z M9,1.5c1.7,0,3,0.5,3,1.5H6C6,2,7.3,1.5,9,1.5z M16.5,21c0,0.8-0.7,1.5-1.5,1.5H3c-0.8,0-1.5-0.7-1.5-1.5
					v-1.5h15L16.5,21z M16.5,18h-15V6c0-0.8,0.7-1.5,1.5-1.5h1.5V9H6V4.5h6V9h1.5V4.5H15c0.8,0,1.5,0.7,1.5,1.5V18z"/>
			</g>
		</g>
	</g>
</g>
</svg>
