<svg xmlns="http://www.w3.org/2000/svg" viewBox="0 0 181.89 56.64"><defs><style>.cls-1{isolation:isolate;font-size:34px;font-family:Raleway-Regular, Raleway;letter-spacing:-0.04em;}.cls-1,.cls-2{fill:#fff;}.cls-2{stroke:#fff;stroke-miterlimit:10;}</style></defs><title>Ресурс 1</title><g id="Слой_2" data-name="Слой 2"><g id="Слой_1-2" data-name="Слой 1"><g id="Слой_2-2" data-name="Слой 2"><g id="HEADER"><g id="Logo"><g id="Waxom"><text class="cls-1" transform="translate(65.99 45.08)">Waxom</text></g></g></g></g><g id="Слой_2-3" data-name="Слой 2"><g id="HEADER-2" data-name="HEADER"><g id="Logo-2" data-name="Logo"><g id="logos"><path class="cls-2" d="M37.64,11.73H27.13l5.25,9.19Zm-11.78.77-5.3,9.19H31.07Zm18.39,9.19L39,12.5l-5.25,9.19ZM33.7,23.22,39,32.41l5.25-9.19Zm-13.14,0,5.3,9.19,5.25-9.19ZM14,33.22H24.5L19.25,24Zm36.78,0L45.52,24,40.27,33.2ZM32.38,1,27.13,10.2H37.64ZM45.52,43.89l5.25-9.19H40.27Zm-26.27,0L24.5,34.7H14Zm-11.82.77h10.5l-5.25-9.19Zm49.91,0-5.25-9.19-5.23,9.19ZM46.86,46.19l5.25,9.19,5.25-9.19Zm-13.14,0L39,55.38l5.25-9.19Zm-21,9.19L18,46.19H7.43ZM.86,56.14h10.5L6.11,47Zm26.27,0H37.64l-5.25-9.19Zm13.14,0h10.5l-5.25-9.19Zm18.39-9.19-5.25,9.19H63.86Z"/></g></g></g></g></g></g></svg>